# xmcd
#
# Track frame offsets: 
#        182
#        20980
#        50060
#        66317
#        77730
#        95927
#        118447
#        138837
#        153177
#        175282
#        201525
#        228785
#        262677
#        281232
#        298097
#        314970
#
# Disc length: 4696 seconds
#
# Revision: 2
# Processed by: cddbd v1.5.2PL0 Copyright (c) Steve Scherf et al.
# Submitted via: ExactAudioCopy v1.0b3
#
DISCID=03125610
DTITLE=Bob Wilber's Bechet Legacy - The Hamburg Concert - Tribute to a
DTITLE=Legend
DYEAR=1996
DGENRE=Jazz
TTITLE0=Down In Honky Tonk Town
TTITLE1=Promenade aux Champs-Elysées
TTITLE2=Oh, Daddy
TTITLE3=Miss Jeanie's Ball
TTITLE4=Egyptian Fantasy
TTITLE5=Quincy Street Stomp
TTITLE6=Georgia Cabin
TTITLE7=I Had It But Its All Gone Now
TTITLE8=Maryland My Maryland
TTITLE9=Si Tu Vois Ma Mere
TTITLE10=Dans Les Rues d'Antibes
TTITLE11=Premier Bal
TTITLE12=Reverie
TTITLE13=Chloé
TTITLE14=Petite Fleur
TTITLE15=After You've Gone
EXTD=YEAR: 1996
EXTT0=
EXTT1=
EXTT2=
EXTT3=
EXTT4=
EXTT5=
EXTT6=
EXTT7=
EXTT8=
EXTT9=
EXTT10=
EXTT11=
EXTT12=
EXTT13=
EXTT14=
EXTT15=
PLAYORDER=
